<svg width="1554" height="1592" viewBox="0 0 1554 1592" fill="none" xmlns="http://www.w3.org/2000/svg">
<g clip-path="url(#clip0_660_787)">
<path d="M1441.24 66.6333C1449.27 73.1272 1456.88 80.0447 1464.21 87.2445L1441.24 66.6333Z" fill="#C0793A"/>
<path d="M548.022 494.103H1004.43V493.68H1252.5C1358.36 493.68 1444.2 407.706 1444.2 301.685C1444.2 195.947 1358.22 109.973 1252.64 109.973H1004.43V109.55H553.942C318.551 109.55 120.795 293.074 109.942 528.549C108.11 569.63 111.915 609.441 120.654 647.557C124.601 664.357 145.603 670.568 157.725 658.145C257.237 556.925 395.371 494.103 548.022 494.103Z" fill="#EB5F28"/>
<path d="M1252.64 988.206H548.023C403.406 988.206 274.858 917.62 194.938 809.2C189.158 801.294 189.158 790.565 194.938 782.8C208.751 764.024 223.974 746.519 240.465 730.284C256.393 714.473 273.589 699.932 291.913 686.803C364.08 634.569 452.598 603.794 548.164 603.794H1252.79C1325.52 603.794 1392.19 577.818 1444.34 534.761C1451.25 528.972 1458.01 522.902 1464.35 516.69C1468.16 513.02 1471.83 509.208 1475.35 505.397C1524.26 451.751 1554.14 380.318 1554.14 302.109C1554.14 238.722 1534.55 179.995 1501.14 131.431C1490.29 115.62 1477.89 100.938 1464.35 87.5267C1457.03 80.3269 1449.41 73.4095 1441.38 66.9156C1389.79 25.2697 1324.11 0.282227 1252.79 0.282227H548.164C453.585 0.282227 364.644 24.4227 286.838 66.9156C263.44 79.6211 241.029 94.0206 219.886 109.973C111.353 191.147 33.9699 311.849 8.88039 450.622C2.96039 482.527 0.000387542 515.42 0.000387542 548.878C0.000387542 582.336 3.10134 614.664 8.88039 646.428C11.2766 659.98 14.2366 673.533 17.7604 686.803C21.5661 701.626 26.0766 716.026 31.0099 730.284C37.7756 749.484 45.3871 768.118 54.1261 786.188C57.0861 792.4 57.0861 799.459 54.1261 805.67C18.6061 879.362 -0.986279 961.948 0.000387542 1049.19C3.38324 1350.88 252.869 1591.86 554.084 1591.86H1252.64C1355.68 1591.86 1446.59 1539.91 1501 1460.71C1534.41 1412.15 1554 1353.28 1554 1290.03C1554 1211.82 1524.12 1140.39 1475.21 1086.74C1420.1 1026.18 1340.74 988.206 1252.64 988.206ZM109.943 528.69C120.797 293.215 318.553 109.691 553.943 109.691H1004.43V110.114H1252.64C1358.22 110.114 1444.2 196.088 1444.2 301.826C1444.2 407.847 1358.36 493.821 1252.5 493.821H1004.43V494.244H548.023C395.372 494.244 257.238 557.207 157.726 658.286C145.604 670.568 124.461 664.498 120.656 647.698C111.917 609.723 107.97 569.771 109.943 528.69ZM1248.98 1482.03H1004.57V1482.45H554.084C318.694 1482.45 120.938 1298.93 110.084 1063.45C108.252 1022.37 112.058 982.559 120.797 944.443C124.743 927.643 145.745 921.432 157.867 933.855C257.379 1035.08 395.513 1097.9 548.164 1097.9H1004.57V1098.32H1252.79C1359.91 1098.32 1446.74 1186.84 1444.34 1294.69C1441.94 1399.58 1353.85 1482.17 1249.12 1482.17L1248.98 1482.03Z" fill="white"/>
</g>
<defs>
<clipPath id="clip0_660_787">
<rect width="1554" height="1592" fill="white"/>
</clipPath>
</defs>
</svg>
